<svg viewBox="0 0 200 99.38268117389221">
  <g transform="matrix(1.052091121673584,0,0,1.052091121673584,47.473152451265776,-22.07169441390463)" fill="#f3f6f6">
    <path xmlns="http://www.w3.org/2000/svg" fill="#f3f6f6" d="M97.436,57.102c0.006-0.025,0.002-0.053,0.006-0.08c0.004-0.033,0.01-0.066,0.006-0.1  c0-0.008,0.004-0.016,0.002-0.023c-0.002-0.015-0.01-0.028-0.014-0.041c-0.002-0.018-0.01-0.031-0.014-0.047  c-0.008-0.023-0.006-0.049-0.018-0.072L84.807,29.597c-0.004-0.006-0.01-0.009-0.012-0.016c-0.018-0.031-0.041-0.058-0.064-0.086  c-0.02-0.026-0.039-0.055-0.064-0.078c-0.021-0.019-0.051-0.03-0.076-0.045c-0.035-0.02-0.066-0.042-0.104-0.053  c-0.006-0.003-0.012-0.008-0.018-0.01l-13.787-3.959c-0.012-0.004-0.021,0-0.033-0.003s-0.02-0.01-0.031-0.012l-28.221-4.355  c-0.023-0.004-0.045,0.004-0.066,0.004c-0.035-0.002-0.07-0.004-0.105,0.001c-0.008,0.002-0.016,0-0.023,0l-0.018,0.004l0,0  l-4.951,1.076c-0.029,0.008-0.051,0.025-0.078,0.036c-0.025,0.009-0.051,0.01-0.074,0.023L2.668,41.958  c-0.023,0.014-0.039,0.037-0.061,0.054c-0.023,0.018-0.051,0.031-0.07,0.053c-0.006,0.006-0.008,0.013-0.014,0.021  C2.502,42.11,2.49,42.14,2.475,42.169c-0.014,0.024-0.033,0.045-0.041,0.071c-0.004,0.008-0.004,0.016-0.006,0.024  c-0.01,0.03-0.01,0.062-0.014,0.095C2.41,42.387,2.4,42.413,2.402,42.441c0,0.008,0.004,0.015,0.004,0.023  c0.002,0.034,0.016,0.065,0.023,0.099c0.008,0.026,0.008,0.055,0.021,0.082l0.002,0.005l0,0l0,0l12.596,27.135  c0.002,0.005,0.008,0.007,0.01,0.012c0.006,0.012,0.012,0.022,0.018,0.034c0.006,0.009,0.012,0.019,0.018,0.029  c0.018,0.023,0.039,0.042,0.059,0.063c0.021,0.021,0.039,0.043,0.062,0.062c0.006,0.005,0.01,0.011,0.016,0.015  c0.002,0.002,0.006,0.002,0.01,0.004c0.002,0,0.002,0.002,0.004,0.003c0.002,0.002,0.004,0.005,0.006,0.007  c0.023,0.012,0.049,0.016,0.072,0.026c0.021,0.011,0.039,0.026,0.062,0.033l13.715,3.96c0.014,0.004,0.027,0.004,0.043,0.006  c0.008,0.002,0.014,0.008,0.023,0.009l28.184,4.392c0.027,0.004,0.053,0.006,0.08,0.006h0.002l0,0h0.002h0.002  c0.035,0,0.072-0.004,0.107-0.012l5.076-1.08c0,0,0.002,0,0.002-0.002c0.002,0,0.002,0,0.002,0c0.012-0.002,0.018-0.009,0.029-0.012  c0.033-0.01,0.064-0.023,0.094-0.039c0.01-0.004,0.02-0.002,0.029-0.008l34.412-19.869c0.025-0.014,0.039-0.036,0.061-0.055  c0.029-0.021,0.057-0.041,0.078-0.066c0.004-0.004,0.01-0.006,0.014-0.01c0-0.002,0-0.004,0.002-0.004  c0.018-0.023,0.025-0.051,0.039-0.076c0.016-0.029,0.033-0.059,0.045-0.091C97.428,57.115,97.434,57.109,97.436,57.102z   M57.418,77.369l-28.057-4.371l-5.652-1.633l35.846,5.549L57.418,77.369z M37.539,23.09l1.549-0.336L21.443,32.946l-5.994,2.876  L37.539,23.09z M83.939,30.267L95.496,55.16L78.523,41.792l-7.012-15.095L83.939,30.267z M70.172,26.346l7.232,15.568L57.328,53.49  l-27.717-4.283l-7.232-15.568l20.039-11.577L70.172,26.346z M29.496,50.27l27.494,4.248l4.828,21.668l-45.363-7.021L29.496,50.27z   M21.432,34.136l7.203,15.503l-13.01,18.851L3.641,42.673L21.432,34.136z M62.871,76.007l-4.832-21.694l20.01-11.538l17.922,14.12  L62.871,76.007z">
    </path>
  </g>
</svg>
